<?xml version="1.0" encoding="UTF-8"?>
<svg id="Layer_1" xmlns="http://www.w3.org/2000/svg" version="1.1" xmlns:xlink="http://www.w3.org/1999/xlink" viewBox="0 0 25 25">
  <!-- Generator: Adobe Illustrator 30.1.0, SVG Export Plug-In . SVG Version: 2.1.1 Build 136)  -->
  <defs>
    <style>
      .st0 {
        fill: #578dac;
      }

      .st1 {
        fill: none;
      }
    </style>
    <clipPath id="clippath">
      <path class="st1" d="M25,12.5c0-1.53-.67-2.9-1.73-3.84-.3-.27-.46-.66-.44-1.06.09-1.41-.41-2.86-1.49-3.94-1.08-1.08-2.53-1.58-3.94-1.49-.4.03-.8-.14-1.06-.44C15.4.67,14.03,0,12.5,0s-2.9.67-3.84,1.73c-.27.3-.66.46-1.06.44-1.41-.09-2.86.41-3.94,1.49-1.08,1.08-1.58,2.53-1.49,3.94.03.4-.14.8-.44,1.06-1.06.94-1.73,2.31-1.73,3.84s.67,2.9,1.73,3.84c.3.27.46.66.44,1.06-.09,1.41.41,2.86,1.49,3.94,1.08,1.08,2.53,1.58,3.94,1.49.4-.03.8.14,1.06.44.94,1.06,2.31,1.73,3.84,1.73s2.9-.67,3.84-1.73c.27-.3.66-.46,1.06-.44,1.41.09,2.86-.41,3.94-1.49,1.08-1.08,1.58-2.53,1.49-3.94-.03-.4.14-.8.44-1.06,1.06-.94,1.73-2.31,1.73-3.84ZM12.41,16.06c-.4.4-.93.6-1.47.6s-1.07-.2-1.47-.61l-2.18-2.11c-.4-.38-.41-1.02-.02-1.41l.06-.06c.38-.4,1.02-.41,1.41-.02l1.49,1.44c.39.38,1.01.38,1.4,0l4.64-4.56c.39-.39,1.03-.38,1.41.01l.06.06c.39.39.38,1.03-.01,1.41l-5.32,5.24Z"/>
    </clipPath>
  </defs>
  <path class="st0" d="M12.5,2c.89,0,1.75.39,2.34,1.06.63.71,1.53,1.12,2.48,1.12.07,0,.14,0,.21,0,.07,0,.13,0,.2,0,.83,0,1.61.32,2.2.91.63.63.96,1.51.91,2.4-.06,1.01.35,2.02,1.11,2.69.67.59,1.06,1.44,1.06,2.34s-.39,1.75-1.06,2.34c-.76.67-1.18,1.68-1.11,2.69.06.89-.27,1.77-.91,2.4-.59.59-1.37.91-2.2.91-.07,0-.13,0-.2,0-.07,0-.14,0-.21,0-.95,0-1.85.41-2.48,1.12-.59.67-1.44,1.06-2.34,1.06s-1.75-.39-2.34-1.06c-.63-.71-1.53-1.12-2.48-1.12-.07,0-.14,0-.21,0-.07,0-.13,0-.2,0-.83,0-1.61-.32-2.2-.91-.63-.63-.96-1.51-.91-2.4.06-1.01-.35-2.02-1.11-2.69-.67-.59-1.06-1.44-1.06-2.34s.39-1.75,1.06-2.34c.76-.67,1.18-1.68,1.11-2.69-.06-.89.27-1.77.91-2.4.59-.59,1.37-.91,2.2-.91.07,0,.13,0,.2,0,.07,0,.14,0,.21,0,.95,0,1.85-.41,2.48-1.12.59-.67,1.44-1.06,2.34-1.06M12.5,0c-1.53,0-2.9.67-3.84,1.73-.25.28-.61.44-.98.44-.03,0-.05,0-.08,0-.11,0-.22-.01-.32-.01-1.31,0-2.62.5-3.62,1.5-1.08,1.08-1.58,2.53-1.49,3.94.03.4-.14.8-.44,1.06-1.06.94-1.73,2.31-1.73,3.84s.67,2.9,1.73,3.84c.3.27.46.66.44,1.06-.09,1.41.41,2.86,1.49,3.94,1,1,2.31,1.5,3.62,1.5.11,0,.22,0,.32-.01.03,0,.05,0,.08,0,.37,0,.73.16.98.44.94,1.06,2.31,1.73,3.84,1.73s2.9-.67,3.84-1.73c.25-.28.61-.44.98-.44.03,0,.05,0,.08,0,.11,0,.22.01.32.01,1.31,0,2.62-.5,3.62-1.5,1.08-1.08,1.58-2.53,1.49-3.94-.03-.4.14-.8.44-1.06,1.06-.94,1.73-2.31,1.73-3.84s-.67-2.9-1.73-3.84c-.3-.27-.46-.66-.44-1.06.09-1.41-.41-2.86-1.49-3.94-1-1-2.31-1.5-3.62-1.5-.11,0-.22,0-.32.01-.03,0-.05,0-.08,0-.37,0-.73-.16-.98-.44-.94-1.06-2.31-1.73-3.84-1.73h0Z"/>
  <path class="st0" d="M16.75,11.65h-3.4v-3.4c0-.47-.38-.85-.85-.85h0c-.47,0-.85.38-.85.85v3.4h-3.4c-.47,0-.85.38-.85.85h0c0,.47.38.85.85.85h3.4v3.4c0,.47.38.85.85.85h0c.47,0,.85-.38.85-.85v-3.4h3.4c.47,0,.85-.38.85-.85h0c0-.47-.38-.85-.85-.85Z"/>
</svg>