<?xml version="1.0" encoding="UTF-8"?>
<svg id="Layer_1" xmlns="http://www.w3.org/2000/svg" version="1.1" viewBox="0 0 1165.71 418.25">
  <!-- Generator: Adobe Illustrator 30.1.0, SVG Export Plug-In . SVG Version: 2.1.1 Build 136)  -->
  <defs>
    <style>
      .st0 {
        fill: #91abbd;
      }

      .st1 {
        fill: #243d49;
      }

      .st2 {
        fill: #263d4e;
      }

      .st3 {
        fill: #223948;
      }

      .st4 {
        fill: #869eac;
      }

      .st5 {
        fill: #223d46;
      }

      .st6 {
        fill: #4b8087;
      }

      .st7 {
        fill: #223947;
      }

      .st8 {
        fill: #9bb2c3;
      }

      .st9 {
        fill: #253c47;
      }

      .st10 {
        fill: #233947;
      }

      .st11 {
        fill: #f2f7f8;
      }

      .st12 {
        fill: #283a4a;
      }

      .st13 {
        fill: #213948;
      }

      .st14 {
        fill: #233a48;
      }

      .st15 {
        fill: #253b49;
      }

      .st16 {
        fill: #97b4c3;
      }

      .st17 {
        fill: #74989c;
      }

      .st18 {
        fill: #233946;
      }

      .st19 {
        fill: #213a49;
      }

      .st20 {
        fill: #214150;
      }

      .st21 {
        fill: #233a47;
      }

      .st22 {
        fill: #213847;
      }

      .st23 {
        fill: #223a49;
      }

      .st24 {
        fill: #223a4a;
      }

      .st25 {
        fill: #203844;
      }

      .st26 {
        fill: #448b9c;
      }

      .st27 {
        fill: #213542;
      }

      .st28 {
        fill: #203747;
      }

      .st29 {
        fill: #abbdc9;
      }

      .st30 {
        fill: #294350;
      }

      .st31 {
        fill: #17252d;
      }

      .st32 {
        fill: #244148;
      }

      .st33 {
        fill: #243a47;
      }

      .st34 {
        fill: #1d3544;
      }

      .st35 {
        fill: #2e4653;
      }

      .st36 {
        fill: #f5f9f9;
      }

      .st37 {
        fill: #233b48;
      }

      .st38 {
        fill: #233f4e;
      }

      .st39 {
        fill: #283f4a;
      }

      .st40 {
        fill: #98b5c0;
      }
    </style>
  </defs>
  <g>
    <g>
      <path class="st33" d="M92.77,44.78c67.85-49.32,166.56-55.14,243.92,0H92.77Z"/>
      <path class="st33" d="M373.12,344.67c-6.12,6.55-12.41,12.71-19.59,17.87-1.75,1.26-3.63,1.7-5.87,1.65-14.4-.29-27.87-4.9-41.38-9.03-22.13-6.77-44.4-12.15-67.81-10.76-16.37.97-32.19,4.66-47.76,9.46-24.75,7.63-49.01,16.86-74.26,22.91-3.61.86-7.33,1.45-10.76,2.79-3.72,1.46-6.52.47-9.63-1.53-8.5-5.47-16.7-11.32-24.48-18.04,4.93.36,9.82.35,14.68.67,19.37,1.27,37.93-2.63,55.98-9.04,17.51-6.22,34.73-13.26,52.22-19.55,20.52-7.38,41.68-11.27,63.59-9.99,16.12.94,31.65,4.8,46.91,9.85,11.47,3.8,22.84,7.98,34.61,10.72,10.98,2.55,22.1,4.54,33.56,2.02Z"/>
      <path class="st21" d="M273.88,241.54c-8.89-1.66-17.53-3.27-26.17-4.89-11.04-2.08-22.07-4.22-33.12-6.23-2.66-.49-3.66-1.44-3.54-4.49.75-18.95,1.87-37.88,2.41-56.84.38-13.37.92-26.74,1.42-40.11.79-20.94,2.04-41.86,2.13-62.82,0-.82-.44-2.01,1.05-2.14,1.57-.13,1.54,1.08,1.68,2.11,1.83,12.87,3.85,25.7,6.89,38.35,11.29,46.85,26.39,92.38,46.95,136.03.1.21.13.44.29,1.03Z"/>
      <path class="st37" d="M65.95,66.87c5.35-5.49,10.66-9.83,16.11-14,1.86-1.42,3.75-2.07,6.09-2.07,32.39.03,64.79,0,97.18-.02,51.62-.03,103.24-.04,154.86-.14,2.71,0,4.95.55,7,2.31,4.5,3.86,9.1,7.61,13.6,11.48.83.71,1.95,1.33,2.05,2.43-33.42,0-66.82,0-100.22,0-11.54,0-23.07-.1-34.61.02-2.39.02-3.18-.83-3.54-3.04-1.14-6.85-1.22-6.9-8.26-6.81-7.62.1-5.59-1.16-7,6.22-.53,2.78-1.21,3.71-4.3,3.7-44.98-.14-89.96-.09-134.94-.09-1.14,0-2.28,0-4.03,0Z"/>
      <path class="st33" d="M283.19,401.69c-57.75,18.16-113.81,13.77-168.33-12.98,7.04-1.48,14.04-3.15,21.12-4.4,18.76-3.33,37.72-3.76,56.68-2.76,19.23,1.01,37.79,5.89,56.26,11.02,11.36,3.15,22.69,6.48,34.26,9.12Z"/>
      <path class="st3" d="M121.26,96.41c25.73,0,51.47.02,77.2-.02,1.95,0,2.21.1,1.87,2.41-.72,4.87-3.46,6.02-7.77,6.67-7.68,1.16-15.16,3.43-22.49,6-4.55,1.6-9.04,2.19-13.91,2.15-33.65-.24-67.3-.17-100.96-.19-7.45,0-14.9-.07-22.35.05-2.47.04-2.61-.68-1.37-2.49,3-4.42,6.01-8.83,8.93-13.31,1.24-1.9,3.08-1.32,4.7-1.32,18.63-.03,37.26.02,55.89.04,6.75,0,13.51,0,20.26,0Z"/>
      <path class="st33" d="M340.16,373.46c-10.36,7.23-21.14,13.1-32.19,18.59-4.09,2.03-7.72.95-11.48.19-18.6-3.76-36.57-9.85-54.77-15.09-18.03-5.2-36.27-8.07-55.06-6.98-.42.02-.84-.03-2.26-.1,5.15-2.41,9.71-3.59,14.19-4.92,17.99-5.35,36.19-9.44,55.16-8.11,13.84.97,27.3,3.91,40.58,7.81,14.74,4.32,29.53,8.35,45.09,8.13.17,0,.35.21.75.47Z"/>
      <path class="st3" d="M398.62,113.45c-8.95,0-17.42,0-25.9,0-27.95.02-55.91-.21-83.85.2-12.85.19-25.41-.24-37.51-5.13-5.06-2.04-10.53-2.62-15.86-3.68-1.58-.31-4.27-6.94-3.27-8.13.77-.91,1.97-.4,2.96-.39,17.7.01,35.4.1,53.11.09,32.03-.03,64.05-.08,96.08-.24,2.42-.01,3.78.82,5.09,2.72,3.16,4.59,6.28,9.19,9.15,14.56Z"/>
      <path class="st10" d="M46.35,89.72c4.22-6.06,8.72-10.88,13.2-15.71,1.17-1.26,2.83-.85,4.31-.85,40.77.02,81.54.07,122.31.1,5.94,0,11.88.05,17.82-.08,2.24-.05,2.88.49,2.16,2.75-1.16,3.64-2.35,7.32-2.99,11.07-.43,2.54-1.6,2.72-3.73,2.71-30.99-.08-61.97-.09-92.96-.09-19.1,0-38.21.07-57.31.11-.68,0-1.36,0-2.82,0Z"/>
      <path class="st3" d="M383.17,89.65c-5.06,0-9.33,0-13.6,0-45.06.03-90.13.03-135.19.18-3.13.01-4.55-.8-5.03-3.9-.5-3.2-1.27-6.4-2.27-9.48-.87-2.69-.31-3.26,2.54-3.25,25.97.08,51.93,0,77.9-.04,19.45-.04,38.89-.07,58.34-.19,1.91-.01,3.27.51,4.57,1.9,4.28,4.57,8.47,9.22,12.75,14.79Z"/>
      <path class="st10" d="M165.37,211.78c21.14-38.18,37.91-77.31,47.11-119.43-.61,10.23-1.29,20.46-1.82,30.69-.46,8.71-.73,17.42-1.12,26.13-.47,10.32-1.06,20.64-1.47,30.97-.44,11.14-.82,22.28-1.04,33.43-.06,2.86-.73,3.05-3.43,2.42-11.43-2.68-23.06-4.09-34.82-4.21-.92,0-1.84,0-3.39,0Z"/>
      <path class="st8" d="M209.95,299.06c-7.76,2.24-15.52,4.48-23.29,6.72-3.04-.92-6.08-1.85-9.12-2.77.64-1.08,1.97-.31,3.29-1.43-7.17.17-13.83-.42-20.4.84-18.64,3.56-37.38,4.43-56.35,3.84-10.41-.32-20.92.05-31.37.59-.91.05-1.84-.15-2.76-.23-.37-1.67.87-2.56,1.8-3.53,3.3-3.45,7.02-6.45,10.57-9.63,3.19-2.86,7.47-3.1,11.45-3.77,25.22-4.29,50.6-7.61,75.76-12.34,8.68-1.63,17.34-3.41,26.1-4.64,1.04-.15,2.06-.42,3.11-.25,1.57,1.51,4.44-.04,5.65,2.36-.72,1.41-2.14,1.17-3.35,1.39-5.37.97-10.77,1.69-16.12,2.79-1.66.34-3.33.74-2.61,3.11.12,2.21-.92,4.16-1.41,6.23-.3,3.02,1.08,5,4.78,6.58,4.63,1.98,9.5,2.94,14.52,3.07,2.08.06,4.17-.04,6.25.04,1.24.04,2.6-.17,3.49,1.07Z"/>
      <path class="st28" d="M150.69,120.28c-7.72,5.2-15.15,10.14-22.15,15.74-.95.76-1.86,1.16-3.14,1.16-33.19-.04-66.38-.03-99.56-.03-2.21,0-4.41,0-7.04,0,1.92-5.85,4.83-10.95,7.32-16.23.62-1.31,2.02-.83,3.14-.82,32.02.06,64.05.13,96.07.19,8.45.02,16.91,0,25.36,0Z"/>
      <path class="st22" d="M410.06,136.98c-34.51,0-68.86-.02-103.2.03-2.55,0-4.59-.56-6.66-2.24-6.19-5.02-12.87-9.39-19.75-13.44.68-1.22,1.59-.73,2.3-.73,39.01-.22,78.02-.4,117.03-.67,1.95-.01,2.93.56,3.73,2.25,2.32,4.89,5.06,9.59,6.55,14.79Z"/>
      <path class="st19" d="M120.02,144.77c-5.46,5.61-11.13,10.92-15.51,17.36-.75,1.11-1.74.94-2.77.94-29.56.01-59.13.04-88.69.03-4.05,0-4.08-.07-2.9-3.82,1.29-4.1,2.68-8.17,3.96-12.27.57-1.83,1.36-2.74,3.61-2.74,33.06.08,66.11.03,99.17.04.98,0,2.05-.32,3.12.46Z"/>
      <path class="st14" d="M309.82,144.3c8.59,0,16.23,0,23.88,0,25.52,0,51.04.05,76.56-.06,2.56-.01,3.73.69,4.39,3.12,1.19,4.37,2.63,8.66,4.02,12.97.62,1.92.58,2.86-2.01,2.85-29.13-.07-58.27-.04-87.4.04-1.9,0-3.12-.4-4.31-2.09-4.14-5.93-9.29-11.02-15.14-16.83Z"/>
      <path class="st13" d="M99.28,171.07c-2.61,3.94-5.23,7.99-7.16,12.42-.48,1.1-1.48.92-2.41.92-27.38,0-54.76,0-82.14.03-1.81,0-2.61-.1-2.2-2.47.54-3.07,1.12-6.15,1.53-9.24.28-2.06,1.13-2.41,2.92-2.4,29.25.08,58.49.1,87.74.16.53,0,1.17-.23,1.72.6Z"/>
      <path class="st10" d="M330.76,170.37c29.1,0,57.64.07,86.18-.09,3.3-.02,4.48,1.14,4.8,4.11.24,2.18.66,4.35,1.15,6.48.59,2.55.18,3.62-2.91,3.6-21.9-.15-43.8-.1-65.71-.11-4.31,0-8.62-.1-12.93.03-1.84.05-2.92-.4-3.82-2.15-2.01-3.89-4.33-7.63-6.77-11.86Z"/>
      <path class="st18" d="M87.95,193.23c-.75,1.83-1.35,3.2-1.87,4.59-.92,2.46-.74,6-2.82,7.18-2.04,1.16-5.21.41-7.88.42-22.83.08-45.67.08-68.5.26-3.29.03-4.33-.74-4.06-4.22.65-8.26.45-8.25,8.76-8.24,24,.02,48,.01,72,.01,1.27,0,2.55,0,4.37,0Z"/>
      <path class="st7" d="M342.02,193.19c26.95,0,53.48.02,80.02-.03,1.81,0,2.73.28,2.73,2.39-.01,3.24,1.78,7.29,0,9.48-1.7,2.1-5.9.41-8.99.42-22,.06-44.01-.05-66.01.04-2.54.01-3.7-.77-4.4-3.14-.88-2.99-2.13-5.87-3.35-9.16Z"/>
      <path class="st23" d="M81.55,214.33c-.59,3.29-1.28,6.33-1.64,9.41-.19,1.61-.9,1.79-2.24,1.79-24.21,0-48.42,0-72.64.09-1.74,0-2.07-.62-2.19-2.2-.7-9.14-.74-9.12,8.41-9.11,22.23.02,44.47.02,66.7.02,1.15,0,2.31,0,3.6,0Z"/>
      <path class="st24" d="M348.45,214.33c6.27,0,12.43,0,18.59,0,18.51,0,37.03.02,55.54-.07,2.24-.01,3.18.5,2.8,2.87-.43,2.71,1.07,6.38-.83,7.94-1.62,1.33-5.12.45-7.78.45-21.19.02-42.38-.03-63.57.06-2.5.01-3.47-.58-3.53-3.21-.06-2.63-.76-5.24-1.21-8.05Z"/>
      <path class="st15" d="M404.59,301.93c-2.06,3.34-3.98,6.45-5.87,9.57-.45.75-1.17.58-1.83.71-15.69,3.23-30.41-.19-44.73-6.47-6.16-2.7-12.31-5.42-18.56-7.9-1.94-.77-1.96-1.17-.81-2.78,3.46-4.84,3.38-4.9,8.97-2.55,10.03,4.23,19.99,8.59,30.8,10.68,10.35,1.99,20.5,1.41,30.61-1.26.3-.08.65-.01,1.42-.01Z"/>
      <path class="st38" d="M79.38,264.06c-21.31,0-42.25,0-63.18,0-.93,0-1.86,0-2.79.01-4.59.03-5.48-.89-5.7-5.48-.11-2.26,1.45-1.32,2.36-1.33,16.05-.04,32.11-.04,48.16-.04,5.47,0,10.94.19,16.4-.04,3.19-.13,4.89.63,4.44,4.14-.1.77.16,1.58.3,2.72Z"/>
      <path class="st16" d="M201.52,245.85c-5.57.88-11.13,1.82-16.71,2.63-12.35,1.78-24.4,5.06-36.64,7.33-12.28,2.28-24.57,4.45-36.86,6.65-.28.05-.59-.11-1.4-.29,3.12-1.71,6.29-2.75,7.59-6,12.84-1.9,25.22-5.87,37.86-8.66,12.26-2.7,24.5-5,37.19-4.67,3.61.1,5.71,2.93,8.98,3.01Z"/>
      <path class="st20" d="M356.54,263.88c.41-1.81.83-3.48,1.16-5.17.4-2.08,2.01-1.56,3.3-1.56,10.82-.02,21.64,0,32.46,0,8.26,0,16.52.08,24.78-.01,2.31-.03,2.45.59,2.11,2.79-.52,3.44-2,4.17-5.36,4.13-18.84-.19-37.69-.08-56.54-.07-.57,0-1.14-.06-1.9-.11Z"/>
      <path class="st27" d="M41.26,239.24c11.28,0,22.57-.02,33.85.03,1.4,0,3.25-.8,3.3,2.1.05,2.82-1.61,2.21-3.14,2.21-22.45.03-44.9.06-67.35.03-1.05,0-2.7.94-3.04-1.18-.33-2.03-.88-3.5,2.54-3.41,11.27.32,22.56.12,33.85.12,0,.03,0,.07,0,.1Z"/>
      <path class="st35" d="M353.88,280.73c1.13-3.67,3.12-4.74,6.74-4.69,17.36.23,34.72.05,52.08.1.97,0,3.06-1.04,2.71,1.2-.21,1.35-.12,3.47-2.9,3.45-19.46-.12-38.91-.06-58.64-.06Z"/>
      <path class="st9" d="M363.49,243.52c.43-3.3,2.1-4.46,5.4-4.43,17.36.15,34.72.07,52.07.12,1.19,0,2.98-.67,2.78,1.85-.15,1.86-.72,2.53-2.75,2.52-19.1-.09-38.2-.05-57.51-.05Z"/>
      <path class="st30" d="M73.87,280.74c-2.21,0-3.9,0-5.6,0-16.63,0-33.26-.1-49.89.1-3.67.04-5.46-.99-5.24-4.69,18.39,0,36.88.06,55.36-.06,3.26-.02,3.77,2.31,5.37,4.65Z"/>
      <path class="st4" d="M144.14,217.89c-1.98.4-4.49,2.69-5.79.55-1.33-2.19-.81-5.27,1.39-7.44,2.17.7,2.74,2.47,2.92,4.45.1,1.1-.2,2.35,1.49,2.44Z"/>
      <path class="st29" d="M165.77,254.91c-3.42,1.11-6.96.99-10.52.88,3.46-.6,6.91-1.2,10.37-1.81.05.31.1.62.15.93Z"/>
      <path class="st4" d="M138.54,210.74c-1.19,0-2.38,0-3.57,0,1.19-.94,2.38-1.11,3.57,0Z"/>
      <path class="st0" d="M321.68,256.38c4.53-1.33,9.2-.5,14.66-1.17-3.83,5.61-7.28,10.62-10.68,15.67-7.77,11.56-15.96,22.83-23.3,34.68-.17.28-.14.67-.2,1.02-7.76-3.13-15.78-5.46-23.87-7.55,5.66.03,9.09-4.19,13.03-7.16,9.95-7.5,18.35-16.59,25.77-26.58,1.56-2.09,3.39-4.11,3.86-6.86-.09-.8.13-1.49.73-2.04Z"/>
      <path class="st36" d="M138.5,237.38c-6.91,1.39-13.81,2.78-20.72,4.18-.07-.22-.14-.44-.21-.65,6.44-2.22,12.81-4.68,19.34-6.61,14.68-4.35,29.46-8.26,44.98-8,4.06.07,8.08.54,12.06,1.36,2.83.58,4.32,2.48,5.27,5,.55,1.46-.45,1.19-1.26,1.14-20.12-3.74-39.84-.88-59.46,3.59Z"/>
      <path class="st11" d="M135.97,227.62c18.43-7.23,37.05-10.79,56.97-4.33-1.21,1.65-2.03.93-2.66.86-16.83-1.73-33.31.22-49.53,4.75-1.95.54-3.81,1.15-4.77-1.28Z"/>
      <path class="st37" d="M367.73,320.76c-12.28-2.74-23.28-8.57-34.44-14.03-2.72-1.33-5.61-3.95-8.11-3.62-2.76.36-4.03,4.38-5.96,6.79-2.61,3.27-3.93,3.39-7.28.61-.95-.79-.88-1.14-.15-2.1,2.38-3.15,4.61-6.41,6.85-9.67,10.65-15.52,21.52-30.9,30.9-47.24,2.32-4.04,2.01-4.8-2.63-5.7-1.97-.38-2.71-1.02-1.85-2.99.46-1.05.95-2.19,1-3.3.07-1.69.71-2.22,2.35-2.07.76.07,2.16.58,2.09-.95-.05-1.2-1.27-1.15-2.19-1.2-1.05-.07-2.09-.13-3.14-.14-21.84-.23-43.28,2.84-64.46,7.98-1.06.26-2.6.16-3.16,1.82,4.12.2,7.95-1.44,12.16-1.49-.19,1.43-.46,2.57-.47,3.71-.04,3.06-1.4,4.28-4.56,4.58-6.45.61-12.87,1.59-19.26,2.63-11.83,1.94-23.66,3.94-35.45,6.09-19.39,3.53-38.75,7.21-58.13,10.79-11.01,2.03-22.02,4.08-33.06,5.94-11.28,1.9-22.59,3.6-33.89,5.37-5.2.82-10.41,1.62-15.69,2.44.14-1.14.8-1.63,1.42-1.73,60.14-10.27,119.84-23.09,179.8-31.78-6.12-1.78-12.92-2.79-19.91-2.96-14.93-.37-29.74,1.38-44.6,2.27-5.79.34-11.58.83-17.35,1.43-7.6.8-15.18,1.78-22.77,2.68-1.02-.1-2.03-.05-3.03.06.98-.21,1.95-.5,2.88-.99,8.58-1.81,17.25-3.12,25.97-3.94,10.51-.98,21.06-1.47,31.6-2.11,1.74-.11,2.54-.27,1.72-2.4-2.37-6.08-6.05-10.38-13.01-10.91-1.5-.11-2.98-.58-4.47-.58-1.47,0-2.26-.69-2.44-1.93-.8-5.48-7.58-6.77-8.48-12.18-.06-.36-.9-.67-1.43-.87-2.38-.9-4.71-2.14-7.18-2.54-14.65-2.41-29.28-2.69-43.74,1.36-.53.35-1.08.16-1.65.12-4.11-.25-4.63-1.13-2.91-4.98.29-.65,1.2-1.28.15-2.03-.4-.09-.8-.17-1.2-.26-1.19-.41-2.38-.42-3.57,0-3.72,3.08-4.11,4.96-1.25,8.71,1.24,1.63.12,1.69-.84,2.03-2.72.97-5.46,1.89-8.34,2.89,1.94,2.71,4.57,4.76,6.02,7.8-8.11,3.36-16.07,6.86-23.58,11.27-.79.46-2.36.6-2.03,1.99.26,1.12,1.61.52,2.43.73,1.33.33,2.77.32,4.16.33,4.13.04,8.25.01,12.65.01-1.51,2.71-2.8,5.03-4.36,7.82,17.72-6.22,35.17-10.56,52.8-14.09,12.15-2.43,24.45-2.93,36.81-1.48,4.62.54,8.02,2.36,9.29,7.1h-17.19c-5.33-.32-10.55.55-15.79,1.39-18.02,2.88-35.64,7.73-53.65,10.62-6.16.99-12.35,1.83-18.18,3.18,1.4-.78,2.8-1.99,3.94-3.48.35-.46,1-1.23-.33-1.39-7.74,2.5-15.3,5.45-22.58,9.08-.83.41-1.96.83-1.81,1.87.22,1.58,1.5.37,2.26.51,2.41.44,4.84.33,7.29.14,7.63-.59,15.31.17,23.66-1.17-2.88,2.93-2.76,7.36-7.51,7.78-5.42.47-10.78,1.74-16.21,2.09-10.92.72-19.98,4.88-27.73,12.69-6.22,6.27-13.11,11.87-19.77,17.69-1.25,1.09-2.38,2.65-4.43,2.4-2.77-.33-5.56-.51-8.31-.94-6.1-.96-12.12-2.28-17.69-5.32,1.72,3.47,3.62,6.65,5.45,9.87.57,1.01,1.25,1.49,2.46,1.53,3.26.1,6.51.42,9.76.52,21.84.7,43.32-3.29,64.97-5.09,7.15-.59,14.29-1.31,21.41-2.22-30.58,9.47-61.8,13.65-93.89,11.27,1.47,1.32,2.56,2.65,3.59,4.05.78,1.07,1.82,1.72,3.21,1.83,5.45.44,10.89,1.13,16.35,1.38,21.92.98,43.4-2.03,64.61-7.36,18.49-4.64,36.33-11.53,54.94-15.75,1.06-.72,2.8.82,3.61-1.04-1.23-1.57-2.95-1.26-4.52-1.34-9.12-.45-18.14.51-27.09,2.16-9.63,1.77-19.28,3.51-29.12,2.64-5.81-.51-11.65-1.07-17.43-.51-9.08.89-18.15.38-27.22.57-1.63.04-3.26,0-4.89.15-.59.02-1.18.07-1.75.22-.89.21-1.74.57-2.65.69-.24.03-.44-.01-.62-.19.28.12.57.14.86.05,5.32-3.29,9.15-8.23,13.43-12.62,2.17-2.22,4.43-3.55,7.44-4.05,17.23-2.85,34.47-5.61,51.7-8.51,38.69-6.51,77.27-13.72,116.08-19.52,19.34-2.89,38.75-5.25,58.2-7.26,7.52-.78,15.06-1.3,22.58-2.04,1.07-.11,2.55-.6,3.2.62.53,1.01-.58,1.9-1.1,2.77-2.44,4.11-5.34,7.91-8.06,11.84-7.95,11.49-15.67,23.14-23.77,34.53-1,1.41-1.62,3.48-3.96,3.43-8-3.21-16.27-5.56-24.65-7.55-7.24-1.77-14.57-3.24-22.02-3.59-15.29-.74-30.46.48-45.45,3.65-1.9.52-3.84.9-5.72,1.43-6.11,1.71-12.42,2.87-17.95,6.25-6.73,2.57-13.48,5.13-20.2,7.73-20.45,7.9-40.92,15.75-62.68,19.34-12.18,2.01-24.45,2.93-36.83,2.02-7.35-.54-14.72-.71-22.62-2.54,4.41,5.94,9.46,10.28,13.7,15.33.39.46,1.23.64,1.89.76,12.14,2.11,24.34,2.11,36.52.61,18.37-2.26,35.83-7.88,52.91-14.79,15.52-6.27,30.69-13.4,46.47-19.07,29.54-10.61,59.34-12.79,89.69-3.56,14.83,4.51,29,10.77,43.62,15.8,15.37,5.28,30.83,9.79,47.36,8.66,2.2-.15,4.81.11,6.23-1.51,3.6-4.11,6.76-8.62,10.65-13.68-9.14,2.45-17.4,1.73-25.65-.11ZM160.18,255.35c-1.44.25-2.88.52-4.33.59,1.42-.34,2.88-.44,4.33-.59ZM318.16,240.43c-.41,1.93-.87,3.84-1.22,5.77-.23,1.3-1.01,1.58-2.19,1.71-7.15.8-14.29,1.68-21.43,2.54-.57.07-1.18.28-1.55-.35-.87-1.48,1.53-7.22,3.26-7.49,7.21-1.12,14.44-2.12,21.66-3.18.86-.13,1.69-.38,1.47.99ZM333.03,246.32c-3.7.22-7.4.49-11.09.86-1.81.18-1.99-.36-1.7-2.06,1-6.01,1.16-6.38,6.99-6.84,5.19-.41,10.4-.55,15.87-.83q-1.87,8.4-10.07,8.87Z"/>
      <path class="st40" d="M138.5,237.38c6.1-2.59,12.57-3.85,19.05-4.84,8.84-1.35,17.79-1.31,26.72-1.56,4.94-.14,9.09,2.14,13.69,2.81-19.07.2-38.04,1.98-57.03,3.62-.8.07-1.62-.01-2.43-.03Z"/>
      <path class="st8" d="M65.71,306.61c.98.04,1.96.08,2.94.12-1.01.58-2.06.82-3.18.33-.04-.02-.07-.2-.04-.25.06-.09.18-.13.28-.19Z"/>
      <path class="st17" d="M321.68,256.38c.04.78.06,1.56-.73,2.04-15.33,1.84-30.69,3.34-46,5.36-19.43,2.57-38.73,5.99-58.14,8.62-4.21.57-8.39,1.36-12.58,2.04-1.47-.93-3.75,1.17-4.82-1.28,15.28-2.39,30.56-4.81,45.85-7.14,12.12-1.85,24.23-3.76,36.39-5.31,11.6-1.48,23.27-2.52,34.9-3.75,1.71-.18,3.42-.39,5.13-.58Z"/>
      <path class="st39" d="M181.97,282.25c2.69-.52,4.93.13,5.95,2.84.72,1.91-.41,3.47-1.98,4.36-2,1.14-4,.85-5.64-.93-.33-2.33,1.07-4.19,1.66-6.27Z"/>
      <path class="st12" d="M164.02,285.12c1.69.25,3.24.93,3.03,2.95-.21,2.06-1.31,3.79-3.66,3.89-1.9.08-3.08-1.06-3.04-2.98.04-2.26,1.29-3.6,3.67-3.87Z"/>
      <path class="st2" d="M148.27,290.96c-.33,1.84-1.29,3.5-3.17,3.52-1.64.02-3.07-1.36-3.05-3.16.02-1.7.49-3.49,2.8-3.6,2.25-.11,2.85,1.52,3.41,3.24Z"/>
      <path class="st25" d="M115.32,295.56c-.35,1.55-1.16,2.99-3.4,2.66-2.21-.32-2.26-2.03-2.14-3.68.15-2.01,1.49-2.82,3.35-2.55,1.79.26,2.48,1.49,2.19,3.57Z"/>
      <path class="st34" d="M128.4,289.79c1.66.26,2.41,1.57,2.34,3.17-.08,1.73-.92,3.21-2.97,3.14-1.86-.06-2.72-1.3-2.49-3.05.22-1.66.79-3.21,3.12-3.26Z"/>
      <path class="st31" d="M99.45,297.06c-.04,1.79-1.21,2.48-2.89,2.61-1.64.13-2.29-.7-2.25-2.27.05-1.69.65-3.03,2.52-3.04,1.54,0,2.56.9,2.62,2.7Z"/>
      <path class="st5" d="M244.78,278.56c.04-2.47,2.3-4.79,4.65-4.51,2.21.26,4.02,1.31,4.2,3.8.18,2.38-2.46,4.99-4.82,4.96-2.27-.03-4.07-1.92-4.03-4.25Z"/>
      <path class="st32" d="M227.19,276.51c2.54.13,3.78,1.6,3.73,4.04-.06,2.87-2.07,4.16-4.56,4.29-2.23.12-3.72-1.31-3.81-3.67-.1-2.54,2.11-4.67,4.63-4.65Z"/>
      <path class="st1" d="M204.66,287.27c-2.23-.31-3.38-1.72-3.04-3.82.37-2.29,1.67-4.33,4.32-4.01,2.05.24,3.66,1.67,3.3,4.08-.37,2.52-2,3.78-4.58,3.75Z"/>
    </g>
    <path class="st6" d="M252.53,408.43c-6.78,0-13.6-1.94-20.25-3.83-6.42-1.83-12.48-3.55-18.23-3.55s-11.81,1.72-18.23,3.55c-8.89,2.53-18.07,5.14-27.09,3.09-9.39-2.14-16.67-8.62-23.7-14.89-4.83-4.3-9.39-8.37-14.27-10.72-5.03-2.43-11.15-3.49-17.62-4.62-9.19-1.6-18.69-3.25-26.06-9.13-7.4-5.91-11.13-14.83-14.73-23.46-2.52-6.05-4.91-11.76-8.36-16.08-3.42-4.29-8.44-7.85-13.75-11.63-7.64-5.44-15.55-11.06-19.69-19.66-4.07-8.43-3.56-18.03-3.07-27.32.35-6.6.67-12.83-.58-18.33-1.18-5.21-4.11-10.52-7.21-16.15-4.56-8.28-9.27-16.84-9.27-26.57s4.71-18.29,9.27-26.57c3.1-5.63,6.02-10.94,7.21-16.15,1.25-5.5.92-11.74.58-18.33-.49-9.29-.99-18.89,3.07-27.32,4.15-8.59,12.05-14.22,19.69-19.66,5.31-3.78,10.33-7.35,13.75-11.63,3.45-4.32,5.84-10.04,8.36-16.08,3.6-8.63,7.33-17.55,14.73-23.46,7.36-5.88,16.87-7.53,26.06-9.13,6.48-1.13,12.6-2.19,17.62-4.62,4.88-2.35,9.44-6.42,14.27-10.72,7.04-6.27,14.31-12.75,23.7-14.89,9.02-2.05,18.2.57,27.09,3.09,6.42,1.83,12.48,3.55,18.22,3.55s11.81-1.72,18.22-3.55c8.89-2.53,18.07-5.14,27.09-3.09,9.39,2.14,16.67,8.62,23.71,14.89,4.83,4.3,9.39,8.37,14.27,10.72,5.03,2.42,11.14,3.49,17.62,4.62,9.19,1.6,18.7,3.26,26.06,9.14,7.4,5.91,11.13,14.83,14.73,23.46,2.52,6.05,4.91,11.76,8.36,16.08,3.42,4.28,8.44,7.85,13.75,11.63,7.65,5.44,15.55,11.06,19.69,19.66,4.07,8.43,3.56,18.03,3.07,27.32-.35,6.6-.67,12.83.58,18.33,1.18,5.21,4.11,10.52,7.21,16.15,4.56,8.28,9.27,16.84,9.27,26.57s-4.71,18.29-9.27,26.57c-3.1,5.63-6.02,10.94-7.21,16.15-1.25,5.5-.92,11.73-.58,18.33.49,9.29.99,18.89-3.07,27.32-4.15,8.59-12.05,14.22-19.69,19.66-5.31,3.78-10.32,7.35-13.75,11.63-3.45,4.32-5.84,10.04-8.36,16.08-3.6,8.63-7.33,17.55-14.73,23.46-7.36,5.88-16.87,7.53-26.06,9.14-6.48,1.13-12.6,2.19-17.62,4.62-4.88,2.35-9.44,6.42-14.27,10.72-7.04,6.27-14.31,12.75-23.71,14.89-2.27.52-4.56.74-6.84.74ZM175.6,19.58c-1.61,0-3.18.15-4.69.49-6.94,1.58-12.98,6.96-19.38,12.66-5.12,4.56-10.41,9.28-16.52,12.22-6.25,3.02-13.34,4.25-20.19,5.44-8.35,1.45-16.23,2.83-21.65,7.15-5.45,4.35-8.54,11.76-11.82,19.6-2.67,6.4-5.43,13.02-9.74,18.41-4.27,5.35-10.09,9.49-15.71,13.49-6.95,4.94-13.51,9.61-16.56,15.95-2.98,6.18-2.56,14.14-2.12,22.57.37,6.97.74,14.18-.81,21.01-1.49,6.55-4.89,12.72-8.17,18.69-4.15,7.53-8.06,14.64-8.06,21.87s3.91,14.34,8.06,21.87c3.29,5.97,6.68,12.14,8.17,18.69,1.55,6.82,1.17,14.03.81,21.01-.44,8.43-.86,16.4,2.12,22.57,3.06,6.34,9.62,11.01,16.56,15.95,5.62,4,11.44,8.14,15.71,13.49,4.31,5.39,7.07,12.01,9.74,18.41,3.27,7.84,6.36,15.24,11.82,19.6,5.41,4.32,13.3,5.69,21.64,7.15,6.85,1.19,13.94,2.43,20.19,5.44,6.11,2.95,11.4,7.66,16.52,12.22,6.4,5.7,12.44,11.08,19.38,12.66,6.58,1.5,14.2-.67,22.26-2.96,6.78-1.93,13.79-3.92,20.89-3.92s14.11,1.99,20.89,3.92c8.06,2.29,15.67,4.46,22.26,2.96,6.94-1.58,12.98-6.96,19.38-12.66,5.12-4.56,10.41-9.28,16.52-12.22,6.25-3.02,13.34-4.25,20.19-5.44,8.35-1.45,16.23-2.83,21.65-7.15,5.45-4.35,8.54-11.76,11.82-19.6,2.67-6.4,5.44-13.02,9.74-18.41,4.27-5.35,10.09-9.49,15.71-13.49,6.95-4.94,13.51-9.61,16.57-15.95,2.98-6.18,2.56-14.14,2.12-22.57-.37-6.97-.74-14.18.81-21.01,1.49-6.55,4.89-12.72,8.17-18.69,4.15-7.53,8.06-14.65,8.06-21.87s-3.92-14.34-8.06-21.87c-3.29-5.97-6.68-12.14-8.17-18.69-1.55-6.82-1.17-14.03-.81-21.01.44-8.43.86-16.4-2.12-22.57-3.06-6.34-9.62-11.01-16.57-15.95-5.62-4-11.44-8.14-15.71-13.49-4.31-5.39-7.07-12.01-9.74-18.41-3.27-7.84-6.36-15.24-11.82-19.6-5.41-4.32-13.3-5.69-21.65-7.15-6.85-1.19-13.94-2.43-20.19-5.44-6.11-2.95-11.4-7.66-16.52-12.22-6.4-5.7-12.44-11.08-19.38-12.66-6.58-1.5-14.2.67-22.26,2.96-6.78,1.93-13.79,3.92-20.89,3.92s-14.11-1.99-20.89-3.92c-6.21-1.77-12.16-3.46-17.57-3.46Z"/>
    <path class="st21" d="M136.99,212.47c-1.38-5.68-4.11-9.47-10.19-10.25,5.1-1.38,9.08-3.58,9.57-9.71q2.62,6.8,10.06,9.92c-5.64,1.23-9.39,3.85-9.44,10.05Z"/>
  </g>
  <g>
    <g>
      <path class="st33" d="M498.37,139.04c-4.43,0-6.38-1.95-6.38-6.38V17.82c0-4.43,1.95-6.38,6.38-6.38h56.54c23.22,0,34.03,8.51,34.03,27.12v8.51c0,9.92-3.37,16.13-10.46,19.14,15.24,1.42,22.33,10.1,22.33,27.47v16.31c0,19.85-10.81,29.06-34.38,29.06h-68.05ZM531.86,60.71h15.06c4.61,0,6.74-2.3,6.74-7.09v-4.96c0-4.79-2.13-7.09-6.74-7.09h-15.06v19.14ZM531.86,108.92h23.04c4.61,0,6.73-2.3,6.73-7.09v-6.91c0-4.79-2.13-6.91-6.73-6.91h-23.04v20.91Z"/>
      <path class="st33" d="M673.65,141.7c-44.31,0-55.12-14.53-55.12-36.15v-60.43c0-21.62,10.81-36.33,55.12-36.33s54.94,14.71,54.94,36.33v60.43c0,21.62-10.63,36.15-54.94,36.15ZM673.65,107.5c12.94,0,14.89-3.54,14.89-8.33v-47.67c0-4.61-1.95-8.15-14.89-8.15s-14.89,3.54-14.89,8.15v47.67c0,4.79,2.13,8.33,14.89,8.33Z"/>
      <path class="st33" d="M804.27,141.7c-44.31,0-55.12-14.53-55.12-36.15v-60.43c0-21.62,10.81-36.33,55.12-36.33s54.94,14.71,54.94,36.33v60.43c0,21.62-10.63,36.15-54.94,36.15ZM804.27,107.5c12.94,0,14.89-3.54,14.89-8.33v-47.67c0-4.61-1.95-8.15-14.89-8.15s-14.89,3.54-14.89,8.15v47.67c0,4.79,2.13,8.33,14.89,8.33Z"/>
      <path class="st33" d="M888.1,139.04c-4.43,0-6.38-1.95-6.38-6.38V17.82c0-4.43,1.95-6.38,6.38-6.38h27.47c4.43,0,6.38,1.95,6.38,6.38v40.76h7.09l18.26-41.29c1.77-4.25,4.25-5.85,8.86-5.85h27.29c4.08,0,5.49,2.13,3.9,5.85l-18.08,41.29c13.29.71,21.8,9.93,21.8,24.1v49.98c0,4.43-1.95,6.38-6.38,6.38h-27.29c-4.43,0-6.38-1.95-6.38-6.38v-34.56c0-3.9-1.95-6.03-5.67-6.03h-23.39v40.58c0,4.43-1.95,6.38-6.38,6.38h-27.47Z"/>
      <path class="st33" d="M1077.43,139.04h-26.05c-4.43,0-6.38-1.95-6.38-6.38v-46.79c0-7.09,2.13-15.95,6.91-28.36l15.42-40.23c1.42-4.08,4.25-5.85,9.04-5.85h47.67c4.61,0,7.44,1.77,8.86,5.85l15.42,40.23c4.79,12.41,6.91,21.27,6.91,28.36v46.79c0,4.43-1.95,6.38-6.38,6.38h-26.76c-4.79,0-6.91-1.95-6.91-6.38v-24.81h-31.37v24.81c0,4.43-1.95,6.38-6.38,6.38ZM1085.58,75.6h27.82l-8.33-26.94c-.89-2.13-1.95-3.01-3.37-3.01h-4.43c-1.42,0-2.48.89-3.37,3.01l-8.33,26.94Z"/>
      <path class="st33" d="M533.29,309.19c-4.73,0-6.55-2-6.55-6.55v-23.29l-27.84-37.3c-5.64-7.46-6.91-11.1-6.91-22.38v-34.94c0-4.55,2-6.55,6.55-6.55h28.02c4.55,0,6.55,2,6.55,6.55v29.84c0,2.55,0,5.1,1.64,7.64l8.37,13.1c1.27,2.18,2.37,3.09,4.37,3.09h1.82c2,0,3.09-.91,4.37-3.09l8.37-13.1c1.64-2.55,1.64-5.1,1.64-7.64v-29.84c0-4.55,2-6.55,6.55-6.55h27.11c4.55,0,6.55,2,6.55,6.55v34.94c0,11.28-1.46,14.92-6.92,22.38l-27.66,37.48v23.11c0,4.55-2,6.55-6.55,6.55h-29.48Z"/>
      <path class="st33" d="M651.28,309.19h-26.75c-4.55,0-6.55-2-6.55-6.55v-48.04c0-7.28,2.18-16.38,7.1-29.11l15.83-41.31c1.46-4.19,4.37-6,9.28-6h48.95c4.73,0,7.64,1.82,9.1,6l15.83,41.31c4.91,12.74,7.1,21.84,7.1,29.11v48.04c0,4.55-2,6.55-6.55,6.55h-27.48c-4.91,0-7.1-2-7.1-6.55v-25.48h-32.21v25.48c0,4.55-2,6.55-6.55,6.55ZM659.65,244.04h28.57l-8.55-27.66c-.91-2.18-2-3.09-3.46-3.09h-4.55c-1.46,0-2.55.91-3.46,3.09l-8.55,27.66Z"/>
      <path class="st33" d="M790,309.19c-30.57,0-44.76-11.83-44.76-37.12v-56.59c0-25.48,14.19-37.3,44.76-37.3h44.4c4.55,0,6.55,2,6.55,6.55v22.02c0,4.55-2,6.55-6.55,6.55h-36.57c-7.64,0-11.1,2.91-11.1,9.1v43.31c0,6,3.46,8.73,11.1,8.73h36.57c4.55,0,6.55,2,6.55,6.55v21.65c0,4.55-2,6.55-6.55,6.55h-44.4Z"/>
      <path class="st33" d="M861.58,309.19c-4.55,0-6.55-2-6.55-6.55v-117.91c0-4.55,2-6.55,6.55-6.55h28.2c4.55,0,6.55,2,6.55,6.55v39.49h30.39v-39.49c0-4.55,2-6.55,6.55-6.55h28.2c4.55,0,6.55,2,6.55,6.55v117.91c0,4.55-2,6.55-6.55,6.55h-28.2c-4.55,0-6.55-2-6.55-6.55v-40.4h-30.39v40.4c0,4.55-2,6.55-6.55,6.55h-28.2Z"/>
      <path class="st33" d="M1021.96,309.19c-4.55,0-6.55-2-6.55-6.55v-89.35h-26.75c-4.55,0-6.55-2-6.55-6.55v-22.02c0-4.55,2-6.55,6.55-6.55h96.08c4.55,0,6.55,2,6.55,6.55v22.02c0,4.55-2,6.55-6.55,6.55h-26.75v89.35c0,4.55-2,6.55-6.55,6.55h-29.48Z"/>
      <path class="st33" d="M1111.92,309.19c-4.55,0-6.55-2-6.55-6.55v-36.94c0-4.73,2-6.55,6.55-6.55h36.76c4.55,0,6.55,1.82,6.55,6.55v36.94c0,4.55-2,6.55-6.55,6.55h-36.76Z"/>
    </g>
    <g>
      <path class="st26" d="M491.98,408.94v-43.07h20.56c4.29,0,7.54,1.01,9.75,3.04,2.21,2.03,3.31,4.7,3.31,8.01,0,1.62-.3,3.06-.89,4.34s-1.44,2.37-2.54,3.28c-1.1.91-2.44,1.54-4.02,1.89l-.06.35c1.97.32,3.58.95,4.85,1.89,1.26.95,2.21,2.11,2.84,3.49.63,1.38.95,2.9.95,4.55,0,2.64-.6,4.87-1.8,6.71-1.2,1.83-2.93,3.21-5.17,4.14-2.25.93-4.96,1.39-8.15,1.39h-19.61ZM499.6,402.85h11.16c2.76,0,4.78-.61,6.06-1.83,1.28-1.22,1.92-2.82,1.92-4.79,0-2.13-.66-3.72-1.98-4.79-1.32-1.06-3.14-1.6-5.46-1.6h-12.47v-5.85h12.11c1.54,0,2.81-.26,3.81-.77,1.01-.51,1.75-1.21,2.25-2.1.49-.89.74-1.94.74-3.16,0-1.97-.66-3.48-1.98-4.52-1.32-1.04-3.06-1.56-5.23-1.56h-10.93v30.96Z"/>
      <path class="st26" d="M554.77,409.47c-3.23,0-6.15-.5-8.77-1.51-2.62-1-4.87-2.45-6.76-4.34-1.89-1.89-3.34-4.2-4.34-6.94-1.01-2.74-1.51-5.84-1.51-9.3s.5-6.56,1.51-9.27c1-2.72,2.45-5.02,4.34-6.91,1.89-1.89,4.14-3.34,6.76-4.34,2.62-1,5.54-1.51,8.77-1.51s6.16.5,8.8,1.51c2.64,1,4.9,2.46,6.79,4.37,1.89,1.91,3.34,4.22,4.34,6.91,1.01,2.7,1.51,5.78,1.51,9.25s-.5,6.57-1.51,9.3c-1,2.74-2.46,5.05-4.37,6.94-1.91,1.89-4.18,3.34-6.79,4.34-2.62,1.01-5.54,1.51-8.77,1.51ZM554.77,402.73c2.76,0,5.14-.59,7.15-1.77,2.01-1.18,3.55-2.91,4.64-5.2,1.08-2.28,1.62-5.08,1.62-8.39,0-2.48-.32-4.67-.95-6.56-.63-1.89-1.53-3.49-2.69-4.79-1.16-1.3-2.57-2.28-4.22-2.95-1.65-.67-3.51-1.01-5.55-1.01-2.72,0-5.07.58-7.06,1.74-1.99,1.16-3.54,2.88-4.64,5.17-1.1,2.28-1.65,5.08-1.65,8.39,0,2.48.32,4.69.95,6.62.63,1.93,1.53,3.54,2.69,4.85,1.16,1.3,2.56,2.27,4.19,2.92,1.63.65,3.48.98,5.52.98Z"/>
      <path class="st26" d="M605.22,409.47c-3.23,0-6.15-.5-8.77-1.51-2.62-1-4.87-2.45-6.76-4.34-1.89-1.89-3.34-4.2-4.34-6.94-1.01-2.74-1.51-5.84-1.51-9.3s.5-6.56,1.51-9.27c1-2.72,2.45-5.02,4.34-6.91s4.14-3.34,6.76-4.34c2.62-1,5.54-1.51,8.77-1.51s6.16.5,8.8,1.51c2.64,1,4.9,2.46,6.79,4.37,1.89,1.91,3.34,4.22,4.34,6.91,1.01,2.7,1.51,5.78,1.51,9.25s-.5,6.57-1.51,9.3c-1,2.74-2.46,5.05-4.37,6.94-1.91,1.89-4.18,3.34-6.79,4.34-2.62,1.01-5.54,1.51-8.77,1.51ZM605.22,402.73c2.76,0,5.14-.59,7.15-1.77,2.01-1.18,3.55-2.91,4.64-5.2,1.08-2.28,1.62-5.08,1.62-8.39,0-2.48-.32-4.67-.95-6.56-.63-1.89-1.53-3.49-2.69-4.79-1.16-1.3-2.57-2.28-4.22-2.95-1.65-.67-3.51-1.01-5.55-1.01-2.72,0-5.07.58-7.06,1.74-1.99,1.16-3.54,2.88-4.64,5.17-1.1,2.28-1.65,5.08-1.65,8.39,0,2.48.32,4.69.95,6.62.63,1.93,1.53,3.54,2.69,4.85,1.16,1.3,2.56,2.27,4.19,2.92,1.63.65,3.48.98,5.52.98Z"/>
      <path class="st26" d="M634.59,408.94v-43.07h7.8v43.07h-7.8ZM661.64,408.94l-12.58-19.55-7.21,7.86v-9.22l19.38-22.15h9.39l-16.25,17.9,16.48,25.17h-9.22Z"/>
      <path class="st26" d="M707.43,409.41c-1.18,0-2.14-.35-2.87-1.03-.73-.69-1.09-1.59-1.09-2.69s.36-2.05,1.09-2.72c.73-.67,1.68-1.01,2.87-1.01s2.08.34,2.81,1.01c.73.67,1.09,1.58,1.09,2.72s-.36,2-1.09,2.69c-.73.69-1.67,1.03-2.81,1.03Z"/>
      <path class="st26" d="M762.31,409.47c-3.86,0-7.08-.59-9.66-1.77-2.58-1.18-4.52-2.84-5.82-4.96-1.3-2.13-1.97-4.55-2.01-7.27h7.98c.04,1.62.4,3.01,1.09,4.2s1.74,2.11,3.16,2.78c1.42.67,3.25,1,5.49,1,1.81,0,3.39-.22,4.73-.65,1.34-.43,2.37-1.11,3.1-2.04.73-.93,1.09-2.1,1.09-3.52,0-1.1-.18-2.02-.53-2.75-.35-.73-.95-1.34-1.77-1.83-.83-.49-1.93-.92-3.31-1.27-1.38-.36-3.07-.71-5.08-1.06-2.48-.39-4.66-.92-6.53-1.57-1.87-.65-3.44-1.45-4.7-2.39-1.26-.95-2.21-2.1-2.84-3.46-.63-1.36-.95-2.98-.95-4.87,0-2.6.66-4.84,1.98-6.73,1.32-1.89,3.2-3.36,5.64-4.4,2.44-1.04,5.36-1.57,8.74-1.57s6.21.53,8.6,1.6c2.38,1.06,4.22,2.55,5.52,4.46,1.3,1.91,1.97,4.13,2.01,6.65h-7.92c-.04-1.54-.43-2.81-1.18-3.81-.75-1-1.75-1.74-3.01-2.22-1.26-.47-2.7-.71-4.31-.71s-3.07.23-4.25.68c-1.18.45-2.09,1.1-2.72,1.95s-.95,1.88-.95,3.1c0,1.34.32,2.39.98,3.16.65.77,1.77,1.39,3.37,1.86,1.59.47,3.79.95,6.59,1.42,1.89.32,3.7.71,5.43,1.18,1.73.47,3.31,1.17,4.73,2.1,1.42.93,2.53,2.19,3.34,3.78.81,1.6,1.21,3.65,1.21,6.17s-.65,4.75-1.95,6.68c-1.3,1.93-3.23,3.43-5.79,4.49-2.56,1.06-5.73,1.6-9.51,1.6Z"/>
      <path class="st26" d="M783.93,408.94l14.77-43.07h11.11l14.77,43.07h-8.15l-10.28-31.61-1.65-5.49h-.41l-1.71,5.49-10.28,31.61h-8.15ZM794.5,399.49l1.54-6.09h16.42l1.54,6.09h-19.5Z"/>
      <path class="st26" d="M831.31,408.94v-43.07h7.8v43.07h-7.8Z"/>
      <path class="st26" d="M849.03,408.94v-43.07h7.8v37.57l-1.3-1.48h21.21v6.97h-27.71Z"/>
      <path class="st26" d="M913.48,409.41c-1.18,0-2.14-.35-2.87-1.03-.73-.69-1.09-1.59-1.09-2.69s.36-2.05,1.09-2.72c.73-.67,1.68-1.01,2.87-1.01s2.08.34,2.81,1.01c.73.67,1.09,1.58,1.09,2.72s-.36,2-1.09,2.69c-.73.69-1.67,1.03-2.81,1.03Z"/>
      <path class="st26" d="M953.18,408.94v-43.07h21.21c1.73,0,3.32.16,4.76.47,1.44.32,2.73.79,3.87,1.42,1.14.63,2.11,1.42,2.9,2.36.79.95,1.4,2.04,1.83,3.28.43,1.24.65,2.63.65,4.17,0,2.68-.7,4.93-2.1,6.76s-3.34,3.08-5.82,3.75v.36c1.69.28,3.05.78,4.08,1.51,1.02.73,1.77,1.67,2.25,2.81.47,1.14.71,2.52.71,4.14v7.27c0,.75.03,1.53.09,2.33.06.81.27,1.62.62,2.45h-7.92c-.24-.55-.41-1.24-.5-2.07s-.15-1.75-.15-2.78v-5.85c0-1.34-.2-2.45-.59-3.34s-1.1-1.58-2.13-2.07c-1.02-.49-2.5-.74-4.43-.74h-12.29v-6.2h12.41c2.8,0,4.79-.66,5.97-1.98,1.18-1.32,1.77-2.96,1.77-4.93,0-1.22-.19-2.24-.56-3.04-.37-.81-.91-1.48-1.59-2.01-.69-.53-1.51-.93-2.45-1.18s-1.99-.38-3.13-.38h-11.64v36.57h-7.8Z"/>
      <path class="st26" d="M996.84,408.94v-43.07h30.72v6.74h-24.58l1.65-1.71v33.02l-1.65-1.71h24.69v6.74h-30.84ZM1002.98,390.15v-6.32h21.68v6.32h-21.68Z"/>
      <path class="st26" d="M1035.3,408.94v-43.07h7.8v37.57l-1.3-1.48h21.21v6.97h-27.71Z"/>
      <path class="st26" d="M1067.79,408.94l14.77-43.07h11.11l14.77,43.07h-8.15l-10.28-31.61-1.65-5.49h-.41l-1.71,5.49-10.28,31.61h-8.15ZM1078.36,399.49l1.54-6.09h16.42l1.54,6.09h-19.5Z"/>
      <path class="st26" d="M1113.28,408.94l15.83-23.1-13.94-19.97h9.16l6.56,10.4,3.07,5.02h.41l3.07-5.02,6.62-10.4h9.16l-13.77,19.91,15.83,23.16h-9.28l-8.21-12.64-3.43-5.38h-.41l-3.37,5.38-8.27,12.64h-9.04Z"/>
    </g>
  </g>
</svg>