<svg width="11" height="6" viewBox="0 0 11 6" fill="none" xmlns="http://www.w3.org/2000/svg">
<path d="M0.165669 0.957046C0.0613585 0.852761 1.90735e-06 0.717798 1.90735e-06 0.558281C1.90735e-06 0.239249 0.239276 4.76837e-07 0.558309 4.76837e-07C0.711674 4.76837e-07 0.852788 0.0613298 0.957073 0.159516L5.32519 4.62576L9.6933 0.159516C9.79758 0.0613298 9.94482 4.76837e-07 10.0921 4.76837e-07C10.4111 4.76837e-07 10.6565 0.239249 10.6565 0.558281C10.6565 0.717798 10.5951 0.852761 10.4909 0.957046L5.73623 5.81596C5.63807 5.93252 5.4847 6 5.32519 6C5.17182 6 5.03071 5.93252 4.91414 5.81596L0.165669 0.957046Z" fill="white"/>
</svg>
