<?xml version="1.0" encoding="UTF-8"?>
<svg id="Layer_1" xmlns="http://www.w3.org/2000/svg" version="1.1" xmlns:xlink="http://www.w3.org/1999/xlink" viewBox="0 0 25 25">
  <!-- Generator: Adobe Illustrator 30.1.0, SVG Export Plug-In . SVG Version: 2.1.1 Build 136)  -->
  <defs>
    <style>
      .st0 {
        fill: #578dac;
      }

      .st1 {
        fill: none;
      }
    </style>
    <clipPath id="clippath">
      <path class="st1" d="M25,12.5c0-1.53-.67-2.9-1.73-3.84-.3-.27-.46-.66-.44-1.06.09-1.41-.41-2.86-1.49-3.94-1.08-1.08-2.53-1.58-3.94-1.49-.4.03-.8-.14-1.06-.44C15.4.67,14.03,0,12.5,0s-2.9.67-3.84,1.73c-.27.3-.66.46-1.06.44-1.41-.09-2.86.41-3.94,1.49-1.08,1.08-1.58,2.53-1.49,3.94.03.4-.14.8-.44,1.06-1.06.94-1.73,2.31-1.73,3.84s.67,2.9,1.73,3.84c.3.27.46.66.44,1.06-.09,1.41.41,2.86,1.49,3.94,1.08,1.08,2.53,1.58,3.94,1.49.4-.03.8.14,1.06.44.94,1.06,2.31,1.73,3.84,1.73s2.9-.67,3.84-1.73c.27-.3.66-.46,1.06-.44,1.41.09,2.86-.41,3.94-1.49,1.08-1.08,1.58-2.53,1.49-3.94-.03-.4.14-.8.44-1.06,1.06-.94,1.73-2.31,1.73-3.84ZM12.41,16.06c-.4.4-.93.6-1.47.6s-1.07-.2-1.47-.61l-2.18-2.11c-.4-.38-.41-1.02-.02-1.41l.06-.06c.38-.4,1.02-.41,1.41-.02l1.49,1.44c.39.38,1.01.38,1.4,0l4.64-4.56c.39-.39,1.03-.38,1.41.01l.06.06c.39.39.38,1.03-.01,1.41l-5.32,5.24Z"/>
    </clipPath>
  </defs>
  <path class="st0" d="M25,12.5c0-1.53-.67-2.9-1.73-3.84-.3-.27-.46-.66-.44-1.06.09-1.41-.41-2.86-1.49-3.94-1.08-1.08-2.53-1.58-3.94-1.49-.4.03-.8-.14-1.06-.44C15.4.67,14.03,0,12.5,0s-2.9.67-3.84,1.73c-.27.3-.66.46-1.06.44-1.41-.09-2.86.41-3.94,1.49-1.08,1.08-1.58,2.53-1.49,3.94.03.4-.14.8-.44,1.06-1.06.94-1.73,2.31-1.73,3.84s.67,2.9,1.73,3.84c.3.27.46.66.44,1.06-.09,1.41.41,2.86,1.49,3.94,1.08,1.08,2.53,1.58,3.94,1.49.4-.03.8.14,1.06.44.94,1.06,2.31,1.73,3.84,1.73s2.9-.67,3.84-1.73c.27-.3.66-.46,1.06-.44,1.41.09,2.86-.41,3.94-1.49,1.08-1.08,1.58-2.53,1.49-3.94-.03-.4.14-.8.44-1.06,1.06-.94,1.73-2.31,1.73-3.84ZM12.41,16.06c-.4.4-.93.6-1.47.6s-1.07-.2-1.47-.61l-2.18-2.11c-.4-.38-.41-1.02-.02-1.41l.06-.06c.38-.4,1.02-.41,1.41-.02l1.49,1.44c.39.38,1.01.38,1.4,0l4.64-4.56c.39-.39,1.03-.38,1.41.01l.06.06c.39.39.38,1.03-.01,1.41l-5.32,5.24Z"/>
</svg>