<svg width="17" height="17" viewBox="0 0 17 17" fill="none" xmlns="http://www.w3.org/2000/svg">
<g clip-path="url(#clip0_123_600)">
<path d="M13.4583 2.83333H10.625V2.125C10.625 1.56141 10.4011 1.02091 10.0026 0.622398C9.60409 0.223883 9.06358 0 8.5 0C7.93641 0 7.39591 0.223883 6.9974 0.622398C6.59888 1.02091 6.375 1.56141 6.375 2.125V2.83333H3.54167C2.6027 2.83446 1.70252 3.20796 1.03857 3.87191C0.374625 4.53585 0.00112473 5.43604 0 6.375L0 13.4583C0.00112473 14.3973 0.374625 15.2975 1.03857 15.9614C1.70252 16.6254 2.6027 16.9989 3.54167 17H13.4583C14.3973 16.9989 15.2975 16.6254 15.9614 15.9614C16.6254 15.2975 16.9989 14.3973 17 13.4583V6.375C16.9989 5.43604 16.6254 4.53585 15.9614 3.87191C15.2975 3.20796 14.3973 2.83446 13.4583 2.83333ZM7.79167 2.125C7.79167 1.93714 7.86629 1.75697 7.99913 1.62413C8.13197 1.49129 8.31214 1.41667 8.5 1.41667C8.68786 1.41667 8.86803 1.49129 9.00087 1.62413C9.13371 1.75697 9.20833 1.93714 9.20833 2.125V3.54167C9.20833 3.72953 9.13371 3.9097 9.00087 4.04253C8.86803 4.17537 8.68786 4.25 8.5 4.25C8.31214 4.25 8.13197 4.17537 7.99913 4.04253C7.86629 3.9097 7.79167 3.72953 7.79167 3.54167V2.125ZM15.5833 13.4583C15.5833 14.0219 15.3595 14.5624 14.9609 14.9609C14.5624 15.3595 14.0219 15.5833 13.4583 15.5833H3.54167C2.97808 15.5833 2.43758 15.3595 2.03906 14.9609C1.64055 14.5624 1.41667 14.0219 1.41667 13.4583V6.375C1.41667 5.81141 1.64055 5.27091 2.03906 4.8724C2.43758 4.47388 2.97808 4.25 3.54167 4.25H6.50533C6.64958 4.66405 6.91911 5.02295 7.27653 5.27692C7.63395 5.53089 8.06154 5.66734 8.5 5.66734C8.93846 5.66734 9.36605 5.53089 9.72347 5.27692C10.0809 5.02295 10.3504 4.66405 10.4947 4.25H13.4583C14.0219 4.25 14.5624 4.47388 14.9609 4.8724C15.3595 5.27091 15.5833 5.81141 15.5833 6.375V13.4583ZM7.08333 7.08333H3.54167C3.3538 7.08333 3.17364 7.15796 3.0408 7.2908C2.90796 7.42364 2.83333 7.6038 2.83333 7.79167V13.4583C2.83333 13.6462 2.90796 13.8264 3.0408 13.9592C3.17364 14.092 3.3538 14.1667 3.54167 14.1667H7.08333C7.27119 14.1667 7.45136 14.092 7.5842 13.9592C7.71704 13.8264 7.79167 13.6462 7.79167 13.4583V7.79167C7.79167 7.6038 7.71704 7.42364 7.5842 7.2908C7.45136 7.15796 7.27119 7.08333 7.08333 7.08333ZM6.375 12.75H4.25V8.5H6.375V12.75ZM14.1667 10.625C14.1667 10.8129 14.092 10.993 13.9592 11.1259C13.8264 11.2587 13.6462 11.3333 13.4583 11.3333H9.91667C9.7288 11.3333 9.54864 11.2587 9.4158 11.1259C9.28296 10.993 9.20833 10.8129 9.20833 10.625C9.20833 10.4371 9.28296 10.257 9.4158 10.1241C9.54864 9.99129 9.7288 9.91667 9.91667 9.91667H13.4583C13.6462 9.91667 13.8264 9.99129 13.9592 10.1241C14.092 10.257 14.1667 10.4371 14.1667 10.625ZM14.1667 7.79167C14.1667 7.97953 14.092 8.1597 13.9592 8.29253C13.8264 8.42537 13.6462 8.5 13.4583 8.5H9.91667C9.7288 8.5 9.54864 8.42537 9.4158 8.29253C9.28296 8.1597 9.20833 7.97953 9.20833 7.79167C9.20833 7.6038 9.28296 7.42364 9.4158 7.2908C9.54864 7.15796 9.7288 7.08333 9.91667 7.08333H13.4583C13.6462 7.08333 13.8264 7.15796 13.9592 7.2908C14.092 7.42364 14.1667 7.6038 14.1667 7.79167ZM12.75 13.4583C12.75 13.6462 12.6754 13.8264 12.5425 13.9592C12.4097 14.092 12.2295 14.1667 12.0417 14.1667H9.91667C9.7288 14.1667 9.54864 14.092 9.4158 13.9592C9.28296 13.8264 9.20833 13.6462 9.20833 13.4583C9.20833 13.2705 9.28296 13.0903 9.4158 12.9575C9.54864 12.8246 9.7288 12.75 9.91667 12.75H12.0417C12.2295 12.75 12.4097 12.8246 12.5425 12.9575C12.6754 13.0903 12.75 13.2705 12.75 13.4583Z" fill="#7FBBC5"/>
</g>
<defs>
<clipPath id="clip0_123_600">
<rect width="17" height="17" fill="white"/>
</clipPath>
</defs>
</svg>
