<?xml version="1.0" encoding="UTF-8"?>
<svg id="Layer_1" xmlns="http://www.w3.org/2000/svg" version="1.1" viewBox="0 0 17 17">
  <!-- Generator: Adobe Illustrator 30.1.0, SVG Export Plug-In . SVG Version: 2.1.1 Build 136)  -->
  <defs>
    <style>
      .st0 {
        fill: #7fbbc5;
      }
    </style>
  </defs>
  <path class="st0" d="M10,9.2c0,.78-.67,1.42-1.49,1.42s-1.5-.63-1.51-1.41c0-.51.28-.98.75-1.23v-3.74h1.5v3.74c.46.25.75.72.75,1.22ZM14.55,3.92c3.1,3.15,2.91,8.08-.43,11.01-3.34,2.93-8.56,2.74-11.67-.41C-.49,11.53-.49,6.91,2.45,3.92l-.73-.77-.66.62L0,2.77,2.43.47l1.06,1-.72.68.79.82c1.22-.86,2.67-1.39,4.18-1.52V0h1.5v1.45c1.52.13,2.97.66,4.18,1.52l.79-.82-.67-.63,1.06-1,2.39,2.26-1.06,1-.66-.62-.73.77ZM15.25,9.2c0-3.52-3.02-6.37-6.75-6.37S1.75,5.68,1.75,9.2s3.02,6.37,6.75,6.37c3.73,0,6.75-2.85,6.75-6.37Z"/>
</svg>