<?xml version="1.0" encoding="UTF-8"?>
<svg id="Layer_1" xmlns="http://www.w3.org/2000/svg" version="1.1" viewBox="0 0 18 14">
  <!-- Generator: Adobe Illustrator 30.1.0, SVG Export Plug-In . SVG Version: 2.1.1 Build 136)  -->
  <defs>
    <style>
      .st0 {
        fill: #4b8087;
      }
    </style>
  </defs>
  <path class="st0" d="M17.97,2.84c.01.1.03.19.03.29v7.5c0,.83-.4,1.62-1.1,2.21-.7.59-1.66.91-2.65.92H3.75c-.99,0-1.95-.33-2.65-.92C.4,12.25,0,11.45,0,10.63V3.13c0-.1.02-.19.03-.29l6.31,5.26c.7.59,1.66.91,2.65.91s1.95-.33,2.65-.91l6.31-5.26ZM14.25,0c.64,0,1.27.14,1.83.41.56.26,1.03.64,1.36,1.1l-6.85,5.71c-.42.35-1,.55-1.59.55s-1.17-.2-1.59-.55L.56,1.51c.33-.46.8-.84,1.36-1.1C2.48.14,3.11,0,3.75,0h10.5Z"/>
</svg>