<svg width="18" height="14" viewBox="0 0 18 14" fill="none" xmlns="http://www.w3.org/2000/svg">
<path d="M17.9658 2.83887C17.9763 2.93756 18 3.02693 18 3.125V10.625C17.9988 11.4535 17.6034 12.2481 16.9004 12.834C16.1974 13.4197 15.2441 13.749 14.25 13.75H3.75C2.75587 13.749 1.8026 13.4197 1.09961 12.834C0.396606 12.2481 0.00119089 11.4535 0 10.625V3.125C1.47651e-06 3.02693 0.0236722 2.93756 0.0341797 2.83887L6.34766 8.09961C7.05163 8.68477 8.00569 9.01367 9 9.01367C9.99431 9.01367 10.9484 8.68477 11.6523 8.09961L17.9658 2.83887ZM14.25 0C14.8926 0.00146292 15.5239 0.141331 16.083 0.405273C16.642 0.669212 17.1106 1.04833 17.4424 1.50684L10.5918 7.21582C10.1691 7.56664 9.59656 7.76367 9 7.76367C8.40344 7.76367 7.83088 7.56664 7.4082 7.21582L0.557617 1.50684C0.889437 1.04834 1.35797 0.669212 1.91699 0.405273C2.4761 0.141333 3.10742 0.00146414 3.75 0H14.25Z" fill="white"/>
</svg>
