<?xml version="1.0" encoding="UTF-8"?>
<svg id="Layer_1" xmlns="http://www.w3.org/2000/svg" version="1.1" viewBox="0 0 13 15">
  <!-- Generator: Adobe Illustrator 30.1.0, SVG Export Plug-In . SVG Version: 2.1.1 Build 136)  -->
  <defs>
    <style>
      .st0 {
        fill: #4b8087;
      }
    </style>
  </defs>
  <path class="st0" d="M6.28,0c1.67,0,3.26.66,4.44,1.84,1.18,1.18,1.84,2.78,1.84,4.44,0,1.59-1.21,4.06-3.59,7.34-.31.43-.71.78-1.18,1.01-.47.24-.99.36-1.51.36-.53,0-1.05-.12-1.51-.36-.47-.24-.87-.59-1.18-1.01C1.21,10.34,0,7.87,0,6.28c0-1.67.66-3.26,1.84-4.44C3.02.66,4.62,0,6.28,0ZM6.28,3.75c-.49,0-.98.15-1.39.42-.41.27-.73.67-.92,1.12-.19.46-.24.96-.14,1.44.1.48.33.93.68,1.28.35.35.8.59,1.28.68.48.1.99.05,1.44-.14.46-.19.85-.51,1.12-.92.27-.41.42-.89.42-1.39,0-.66-.26-1.3-.73-1.77-.47-.47-1.1-.73-1.77-.73Z"/>
</svg>