<?xml version="1.0" encoding="UTF-8"?>
<svg id="Layer_1" xmlns="http://www.w3.org/2000/svg" version="1.1" viewBox="0 0 15 15">
  <!-- Generator: Adobe Illustrator 30.1.0, SVG Export Plug-In . SVG Version: 2.1.1 Build 136)  -->
  <defs>
    <style>
      .st0 {
        fill: #4b8087;
      }
    </style>
  </defs>
  <path class="st0" d="M0,3.9C0,8.68,6.33,15,11.1,15c1.04,0,2.02-.39,2.74-1.11l.62-.72c.72-.72.72-1.95-.03-2.71-.02-.02-1.52-1.17-1.52-1.17-.75-.71-1.93-.71-2.67,0l-.91.73c-2-.85-3.42-2.27-4.33-4.34l.72-.91c.72-.74.72-1.93,0-2.67,0,0-1.16-1.51-1.17-1.52C3.78-.19,2.56-.19,1.8.57l-.66.57C.39,1.88,0,2.85,0,3.9H0Z"/>
</svg>