<svg width="17" height="17" viewBox="0 0 17 17" fill="none" xmlns="http://www.w3.org/2000/svg">
<g clip-path="url(#clip0_123_605)">
<path d="M13.4583 4.24996H9.20833C8.56149 4.25233 7.92772 4.43226 7.37613 4.77014C6.82455 5.10801 6.37632 5.59085 6.08033 6.166C5.65561 5.84356 5.13741 5.66826 4.60417 5.66663C3.94665 5.66663 3.31607 5.92782 2.85113 6.39276C2.3862 6.85769 2.125 7.48828 2.125 8.14579C2.12707 8.51413 2.21205 8.87728 2.37363 9.20829H1.41667V2.12496C1.41667 1.9371 1.34204 1.75693 1.2092 1.62409C1.07636 1.49125 0.896195 1.41663 0.708333 1.41663C0.520472 1.41663 0.340304 1.49125 0.207466 1.62409C0.0746278 1.75693 0 1.9371 0 2.12496L0 14.875C0 15.0628 0.0746278 15.243 0.207466 15.3758C0.340304 15.5087 0.520472 15.5833 0.708333 15.5833C0.896195 15.5833 1.07636 15.5087 1.2092 15.3758C1.34204 15.243 1.41667 15.0628 1.41667 14.875V13.4583H15.5833V14.875C15.5833 15.0628 15.658 15.243 15.7908 15.3758C15.9236 15.5087 16.1038 15.5833 16.2917 15.5833C16.4795 15.5833 16.6597 15.5087 16.7925 15.3758C16.9254 15.243 17 15.0628 17 14.875V7.79163C16.9989 6.85266 16.6254 5.95248 15.9614 5.28853C15.2975 4.62458 14.3973 4.25108 13.4583 4.24996ZM7.08333 7.79163C7.08333 7.22804 7.30722 6.68754 7.70573 6.28902C8.10425 5.89051 8.64475 5.66663 9.20833 5.66663H13.4583C14.0219 5.66663 14.5624 5.89051 14.9609 6.28902C15.3595 6.68754 15.5833 7.22804 15.5833 7.79163V9.20829H7.08333V7.79163ZM3.54167 8.14579C3.54167 7.93565 3.60398 7.73023 3.72073 7.5555C3.83748 7.38077 4.00342 7.24459 4.19757 7.16417C4.39171 7.08375 4.60535 7.06271 4.81145 7.10371C5.01755 7.14471 5.20687 7.2459 5.35547 7.39449C5.50406 7.54309 5.60525 7.7324 5.64625 7.93851C5.68725 8.14461 5.66621 8.35825 5.58579 8.55239C5.50537 8.74654 5.36919 8.91248 5.19446 9.02923C5.01973 9.14598 4.81431 9.20829 4.60417 9.20829C4.32237 9.20829 4.05212 9.09635 3.85287 8.89709C3.65361 8.69784 3.54167 8.42759 3.54167 8.14579ZM1.41667 12.0416V10.625H15.5833V12.0416H1.41667Z" fill="#7FBBC5"/>
</g>
<defs>
<clipPath id="clip0_123_605">
<rect width="17" height="17" fill="white"/>
</clipPath>
</defs>
</svg>
