<?xml version="1.0" encoding="UTF-8"?>
<svg id="Layer_1" xmlns="http://www.w3.org/2000/svg" version="1.1" viewBox="0 0 17 17">
  <!-- Generator: Adobe Illustrator 30.1.0, SVG Export Plug-In . SVG Version: 2.1.1 Build 136)  -->
  <defs>
    <style>
      .st0 {
        fill: #7fbbc5;
      }
    </style>
  </defs>
  <path class="st0" d="M16.72,11.53c-.35-.57-.95-.9-1.61-.9H1.88c-.66,0-1.26.34-1.6.9-.34.55-.37,1.22-.08,1.8.69,1.37,2.45,3.68,6.51,3.68h3.57c4.04,0,5.82-2.3,6.52-3.67.29-.58.27-1.25-.07-1.8ZM15.53,12.69c-.68,1.32-2.14,2.9-5.26,2.9h-3.57c-3.13,0-4.58-1.58-5.24-2.9-.09-.18-.03-.34.02-.42.04-.07.16-.22.4-.22h13.23c.24,0,.36.16.4.23.05.08.11.24.02.42h0ZM1.65,9.21h3.78c.44,0,.86-.17,1.17-.49.31-.31.48-.73.48-1.17V3.07c0-.68-.43-1.3-1.06-1.54-.63-.24-1.36-.07-1.84.46L.42,6.45c-.44.49-.55,1.18-.28,1.78.27.6.86.98,1.51.98h0ZM1.49,7.38l3.76-4.47c.05-.05.11-.08.18-.08.18,0,.24.14.24.24v4.49c0,.06-.02.12-.07.17-.04.04-.1.07-.17.07H1.65c-.09,0-.18-.05-.22-.14-.04-.08-.02-.18.06-.27ZM8.98,8.72c.31.31.73.48,1.17.48h5.19c.65,0,1.24-.38,1.51-.98.26-.59.15-1.29-.28-1.77L11.38.55c-.46-.51-1.19-.68-1.82-.44-.63.24-1.06.86-1.06,1.54v5.9c0,.44.17.86.48,1.17h0ZM9.92,1.65c0-.1.06-.19.15-.22.09-.03.19,0,.25.06l5.2,5.91c.06.07.08.17.04.25-.04.08-.12.14-.22.14h-5.19c-.06,0-.12-.02-.17-.07-.04-.05-.07-.1-.07-.17V1.65s0,0,0,0Z"/>
</svg>